<mxfile host="app.diagrams.net" agent="Mozilla/5.0 (Macintosh; Intel Mac OS X 10_15_7) AppleWebKit/537.36 (KHTML, like Gecko) Chrome/130.0.0.0 Safari/537.36" version="24.8.6">
  <diagram name="Page-1" id="V4fq2CPKYVwuMBY65UA_">
    <mxGraphModel dx="1194" dy="535" grid="1" gridSize="10" guides="1" tooltips="1" connect="1" arrows="1" fold="1" page="1" pageScale="1" pageWidth="850" pageHeight="1100" math="0" shadow="0">
      <root>
        <mxCell id="0" />
        <mxCell id="1" parent="0" />
        <mxCell id="ykxl8MRSU-tnWzsCg_Ww-6" style="edgeStyle=orthogonalEdgeStyle;rounded=0;orthogonalLoop=1;jettySize=auto;html=1;exitX=0.5;exitY=1;exitDx=0;exitDy=0;" edge="1" parent="1" source="ykxl8MRSU-tnWzsCg_Ww-1" target="ykxl8MRSU-tnWzsCg_Ww-2">
          <mxGeometry relative="1" as="geometry" />
        </mxCell>
        <mxCell id="ykxl8MRSU-tnWzsCg_Ww-1" value="" style="ellipse;html=1;shape=startState;fillColor=#FF3333;strokeColor=#ff0000;" vertex="1" parent="1">
          <mxGeometry x="390" y="30" width="30" height="30" as="geometry" />
        </mxCell>
        <mxCell id="ykxl8MRSU-tnWzsCg_Ww-7" style="edgeStyle=orthogonalEdgeStyle;rounded=0;orthogonalLoop=1;jettySize=auto;html=1;exitX=0.5;exitY=1;exitDx=0;exitDy=0;" edge="1" parent="1" source="ykxl8MRSU-tnWzsCg_Ww-2" target="ykxl8MRSU-tnWzsCg_Ww-3">
          <mxGeometry relative="1" as="geometry" />
        </mxCell>
        <mxCell id="ykxl8MRSU-tnWzsCg_Ww-2" value="Logs in with credentials" style="rounded=1;whiteSpace=wrap;html=1;fillColor=#FFFFFF;strokeColor=#ff0000;" vertex="1" parent="1">
          <mxGeometry x="317.5" y="100" width="175" height="60" as="geometry" />
        </mxCell>
        <mxCell id="ykxl8MRSU-tnWzsCg_Ww-8" style="edgeStyle=orthogonalEdgeStyle;rounded=0;orthogonalLoop=1;jettySize=auto;html=1;exitX=0;exitY=0.5;exitDx=0;exitDy=0;entryX=1;entryY=0.5;entryDx=0;entryDy=0;" edge="1" parent="1" source="ykxl8MRSU-tnWzsCg_Ww-3" target="ykxl8MRSU-tnWzsCg_Ww-4">
          <mxGeometry relative="1" as="geometry" />
        </mxCell>
        <mxCell id="ykxl8MRSU-tnWzsCg_Ww-10" value="No" style="edgeLabel;html=1;align=center;verticalAlign=middle;resizable=0;points=[];" vertex="1" connectable="0" parent="ykxl8MRSU-tnWzsCg_Ww-8">
          <mxGeometry x="-0.1243" y="1" relative="1" as="geometry">
            <mxPoint x="1" as="offset" />
          </mxGeometry>
        </mxCell>
        <mxCell id="ykxl8MRSU-tnWzsCg_Ww-3" value="Credentials Verified?" style="rhombus;whiteSpace=wrap;html=1;fillColor=#FFFFFF;strokeColor=#ff0000;rounded=1;" vertex="1" parent="1">
          <mxGeometry x="332.5" y="190" width="145" height="80" as="geometry" />
        </mxCell>
        <mxCell id="ykxl8MRSU-tnWzsCg_Ww-9" style="edgeStyle=orthogonalEdgeStyle;rounded=0;orthogonalLoop=1;jettySize=auto;html=1;exitX=0.5;exitY=1;exitDx=0;exitDy=0;entryX=0.5;entryY=0;entryDx=0;entryDy=0;" edge="1" parent="1" source="ykxl8MRSU-tnWzsCg_Ww-4" target="ykxl8MRSU-tnWzsCg_Ww-5">
          <mxGeometry relative="1" as="geometry" />
        </mxCell>
        <mxCell id="ykxl8MRSU-tnWzsCg_Ww-4" value="Display Error Message" style="whiteSpace=wrap;html=1;fillColor=#FFFFFF;strokeColor=#ff0000;rounded=1;" vertex="1" parent="1">
          <mxGeometry x="120" y="200" width="120" height="60" as="geometry" />
        </mxCell>
        <mxCell id="ykxl8MRSU-tnWzsCg_Ww-5" value="Re-enter Credentials" style="whiteSpace=wrap;html=1;fillColor=#FFFFFF;strokeColor=#ff0000;rounded=1;" vertex="1" parent="1">
          <mxGeometry x="120" y="340" width="120" height="60" as="geometry" />
        </mxCell>
        <mxCell id="ykxl8MRSU-tnWzsCg_Ww-11" value="Yes" style="edgeStyle=orthogonalEdgeStyle;rounded=0;orthogonalLoop=1;jettySize=auto;html=1;entryX=0.5;entryY=0;entryDx=0;entryDy=0;" edge="1" parent="1" target="ykxl8MRSU-tnWzsCg_Ww-12">
          <mxGeometry relative="1" as="geometry">
            <mxPoint x="405" y="340" as="targetPoint" />
            <mxPoint x="405" y="270" as="sourcePoint" />
          </mxGeometry>
        </mxCell>
        <mxCell id="ykxl8MRSU-tnWzsCg_Ww-14" value="" style="edgeStyle=orthogonalEdgeStyle;rounded=0;orthogonalLoop=1;jettySize=auto;html=1;" edge="1" parent="1" source="ykxl8MRSU-tnWzsCg_Ww-12" target="ykxl8MRSU-tnWzsCg_Ww-13">
          <mxGeometry relative="1" as="geometry" />
        </mxCell>
        <mxCell id="ykxl8MRSU-tnWzsCg_Ww-12" value="Navigate to &#39;Inbox&#39; Page" style="rounded=1;whiteSpace=wrap;html=1;fillColor=#FFFFFF;strokeColor=#ff0000;" vertex="1" parent="1">
          <mxGeometry x="328.75" y="340" width="152.5" height="60" as="geometry" />
        </mxCell>
        <mxCell id="ykxl8MRSU-tnWzsCg_Ww-16" value="" style="edgeStyle=orthogonalEdgeStyle;rounded=0;orthogonalLoop=1;jettySize=auto;html=1;" edge="1" parent="1" source="ykxl8MRSU-tnWzsCg_Ww-13" target="ykxl8MRSU-tnWzsCg_Ww-15">
          <mxGeometry relative="1" as="geometry" />
        </mxCell>
        <mxCell id="ykxl8MRSU-tnWzsCg_Ww-13" value="Display List of Received Messages" style="rounded=1;whiteSpace=wrap;html=1;fillColor=#FFFFFF;strokeColor=#ff0000;" vertex="1" parent="1">
          <mxGeometry x="328.75" y="450" width="152.5" height="60" as="geometry" />
        </mxCell>
        <mxCell id="ykxl8MRSU-tnWzsCg_Ww-18" style="edgeStyle=orthogonalEdgeStyle;rounded=0;orthogonalLoop=1;jettySize=auto;html=1;entryX=0.5;entryY=0;entryDx=0;entryDy=0;" edge="1" parent="1" source="ykxl8MRSU-tnWzsCg_Ww-15" target="ykxl8MRSU-tnWzsCg_Ww-17">
          <mxGeometry relative="1" as="geometry" />
        </mxCell>
        <mxCell id="ykxl8MRSU-tnWzsCg_Ww-15" value="Reply to Messages" style="rounded=1;whiteSpace=wrap;html=1;fillColor=#FFFFFF;strokeColor=#ff0000;" vertex="1" parent="1">
          <mxGeometry x="328.75" y="560" width="152.5" height="60" as="geometry" />
        </mxCell>
        <mxCell id="ykxl8MRSU-tnWzsCg_Ww-17" value="" style="ellipse;html=1;shape=endState;fillColor=#FF3333;strokeColor=#ff0000;" vertex="1" parent="1">
          <mxGeometry x="390" y="670" width="30" height="30" as="geometry" />
        </mxCell>
      </root>
    </mxGraphModel>
  </diagram>
</mxfile>
